
        <svg xmlns="http://www.w3.org/2000/svg" xmlns:xlink="http://www.w3.org/1999/xlink" version="1.1" width="3171.4285714285716" 
        height="1860.7117803276053" viewBox="0 0 3171.4285714285716 1860.7117803276053">
			
			<g transform="scale(8.571428571428571) translate(10, 10)">
				<defs id="SvgjsDefs3062"></defs><g id="SvgjsG3063" featureKey="1p4tPl-0" transform="matrix(6.349722149332969,0,0,6.349722149332969,98.93883914290089,-9.922525561759125)" fill="#ffcd38"><defs xmlns="http://www.w3.org/2000/svg"></defs><path xmlns="http://www.w3.org/2000/svg" d="m21.62,10.06c1.39-3.11,1.45-5.8.15-8.23-.13-.24-.44-.34-.68-.21-.24.13-.34.43-.21.68,1.15,2.16,1.09,4.5-.17,7.32-.19-.07-.37-.14-.59-.19l-.41-.09c-.3-.07-.63,0-.89.16-.26.17-.44.44-.5.75l-.1.51c-1.02.16-1.72,1.07-2.41,2.41-1.06,2.44-2.86,3.99-3.84,4.7-.55.41-1.24.6-1.93.56l-3.86-.21c-.74-.12-1.49.03-2.12.41l-1.3.79c-.87.53-1.43,1.46-1.49,2.49-.01.24.14.45.37.51.04.01.09.02.13.02.18,0,.36-.1.44-.27.16-.3.76-.46,1.24-.59.15-.04.29-.07.42-.11l.77-.24c.41-.12.8-.12,1.18-.01l2.99.89c1.03.3,2.1.34,3.18.12.31-.06.65-.12.99-.18,2.19-.37,5.2-.87,7.43-4.57,1.11-1.85,1.55-3.29,1.33-4.41l.49-.39c.38-.29.54-.79.39-1.25-.18-.57-.53-1.02-1.03-1.36Zm-2.31.39c.01-.06.04-.09.07-.1.02-.01.07-.04.12-.02l.41.09c1.01.22,1.57.63,1.78,1.3,0,.02.03.11-.05.17l-.28.22c-.32-.46-.8-.81-1.44-1.06-.02,0-.05-.02-.07-.02-.22-.08-.42-.14-.61-.19l.07-.39Zm.26,6.51c-2,3.31-4.51,3.73-6.74,4.1-.36.06-.7.12-1.03.18-.92.19-1.83.15-2.7-.1l-2.99-.89c-.27-.08-.55-.12-.84-.12s-.6.04-.91.13l-.78.24c-.12.04-.25.07-.38.1-.15.04-.3.08-.46.13.15-.18.33-.34.53-.46l1.3-.79c.43-.26.94-.35,1.49-.27l3.91.22c.94.05,1.85-.21,2.58-.75,1.06-.77,3.01-2.45,4.15-5.08.92-1.77,1.46-1.89,1.9-1.86.25.01.55.09.95.25.02,0,.05.02.07.02.57.23.93.56,1.08,1.01.29.84-.11,2.21-1.15,3.94Z" style="stroke-width: 0px;"></path><path xmlns="http://www.w3.org/2000/svg" d="m19.86,13.78c-.25-.11-.55,0-.66.26-.64,1.47-1,2.14-1.93,3.22-.18.21-.16.53.05.71.09.08.21.12.33.12.14,0,.28-.06.38-.17,1-1.17,1.42-1.93,2.09-3.48.11-.25,0-.55-.26-.66Z" style="stroke-width: 0px;"></path><path xmlns="http://www.w3.org/2000/svg" d="m2.78,17.57c.11,0,.22-.04.31-.11.22-.17.25-.49.08-.7-.91-1.14-.69-2.44-.27-3.42.19.86.62,1.67,1.23,2.13.77.59,1.71.57,2.58-.06,1.96-1.4.87-3.3-.09-4.97-.62-1.08-1.26-2.19-1.29-3.28-.07-2.3.78-3.42,1.54-3.96-.42.96-.83,2.29-.47,3.25.2.52.6.89,1.22,1.08.84.16,1.37-.13,1.67-.4.25-.23.43-.53.54-.84.12.62.07,1.28-.18,1.89-.35.86-.67,2.09-.25,3.02.21.48.59.82,1.11,1.01.76.28,1.58.14,2.13-.36.53-.48,1.03-1.45.64-3.41.58.04,1.51.28,2.05,1.35.12.25.42.35.67.22.25-.12.35-.42.22-.67-.92-1.85-2.79-2.03-3.66-1.87-.14.03-.26.11-.33.22-.07.12-.1.26-.06.4.38,1.44.31,2.54-.21,3.01-.33.3-.79.29-1.12.17-.27-.1-.44-.25-.54-.48-.21-.48-.12-1.29.27-2.24.56-1.38.38-2.92-.48-4.12l-.13-.19c-.13-.19-.36-.27-.58-.19-.21.08-.35.29-.33.52.03.34.01,1.4-.44,1.82-.07.06-.27.25-.75.17-.27-.08-.44-.23-.52-.46-.33-.86.45-2.67,1.02-3.61.1-.16.1-.37,0-.53s-.29-.25-.48-.22c-.04,0-3.68.5-3.54,5.46.04,1.34.77,2.62,1.43,3.75,1.14,1.98,1.49,2.86.37,3.66-.52.37-.98.4-1.39.08-.75-.57-1.16-2.1-.81-3.02.08-.23,0-.48-.21-.61-.21-.12-.48-.08-.63.1-1.02,1.18-2.48,4-.69,6.23.1.12.24.19.39.19Z" style="stroke-width: 0px;"></path></g><g id="SvgjsG3064" featureKey="dYASrj-0" transform="matrix(3.027681501042376,0,0,3.027681501042376,-2.6038057732800137,138.2854718318281)" fill="#00000"><path d="M0.86 14 c0 1.3733 0.82666 2.53 2.48 3.47 s3.68 1.41 6.08 1.41 c2.3866 0 4.3334 -0.26 5.84 -0.78 c1.8133 -0.62666 2.72 -1.5467 2.72 -2.76 c0 -1.2667 -0.77334 -2.18 -2.32 -2.74 c-0.88 -0.32 -2.5934 -0.65334 -5.14 -1 l-1.98 -0.28 c-2.4134 -0.34666 -4.0134 -0.65332 -4.8 -0.91998 c-1.1733 -0.4 -1.76 -0.98 -1.76 -1.74 c0 -0.72 0.69334 -1.3067 2.08 -1.76 s3.1734 -0.68 5.36 -0.68 c2.0134 0 3.7566 0.37334 5.23 1.12 s2.21 1.6333 2.21 2.66 l0 0 c0 0.37334 0.18666 0.56 0.56 0.56 s0.56 -0.18666 0.56 -0.56 l0 0 c0 -1.3733 -0.82666 -2.53 -2.48 -3.47 s-3.68 -1.41 -6.08 -1.41 c-2.3866 0 -4.3334 0.26 -5.84 0.78 c-1.8133 0.62666 -2.72 1.5467 -2.72 2.76 c0 1.2667 0.80666 2.1866 2.42 2.76 c0.77334 0.26666 2.48 0.6 5.12 1 l0.94 0.14 l1.02 0.14 c2.44 0.33334 4.06 0.64 4.86 0.92 c1.0933 0.37334 1.64 0.94668 1.64 1.72 c0 0.72 -0.69334 1.3067 -2.08 1.76 s-3.1734 0.68 -5.36 0.68 c-2.0134 0 -3.7566 -0.37334 -5.23 -1.12 s-2.21 -1.6333 -2.21 -2.66 l0 0 c0 -0.37334 -0.18666 -0.56 -0.56 -0.56 s-0.56 0.18666 -0.56 0.56 z M42.36 5.5600000000000005 c-0.25334 0 -0.42666 0.10666 -0.52 0.32 l-4.86 10.92 l-5.96 -11.94 l-5.98 11.94 l-4.86 -10.92 c-0.09334 -0.21334 -0.26 -0.32 -0.5 -0.32 c-0.36 0 -0.54 0.18 -0.54 0.54 c0 0.08 0.01334 0.16 0.04 0.24 l5.8 13.08 l6.04 -12.06 l6.02 12.06 l5.82 -13.08 c0.02666 -0.06666 0.04 -0.14 0.04 -0.22 c0 -0.37334 -0.18 -0.56 -0.54 -0.56 z M52.62 5.220000000000001 c-2.4266 0 -4.5066 0.66 -6.24 1.98 c-1.7733 1.3467 -2.66 2.9866 -2.66 4.92 s0.88666 3.5734 2.66 4.92 c1.72 1.3067 3.8 1.96 6.24 1.96 s4.5134 -0.65334 6.22 -1.96 c1.7733 -1.36 2.66 -3 2.66 -4.92 s-0.88666 -3.56 -2.66 -4.92 c-1.7333 -1.32 -3.8066 -1.98 -6.22 -1.98 z M60.39999999999999 12.120000000000001 c0 1.5867 -0.76 2.9434 -2.28 4.07 s-3.3534 1.69 -5.5 1.69 s-3.98 -0.56334 -5.5 -1.69 s-2.28 -2.4834 -2.28 -4.07 c0 -1.6 0.76 -2.9634 2.28 -4.09 s3.3534 -1.69 5.5 -1.69 s3.98 0.56334 5.5 1.69 s2.28 2.49 2.28 4.09 z M71.4 5.220000000000001 c-2.4266 0 -4.5066 0.66 -6.24 1.98 c-1.7733 1.3467 -2.66 2.9866 -2.66 4.92 s0.88666 3.5734 2.66 4.92 c1.72 1.3067 3.8 1.96 6.24 1.96 s4.5134 -0.65334 6.22 -1.96 c1.7733 -1.36 2.66 -3 2.66 -4.92 s-0.88666 -3.56 -2.66 -4.92 c-1.7333 -1.32 -3.8066 -1.98 -6.22 -1.98 z M79.17999999999999 12.120000000000001 c0 1.5867 -0.76 2.9434 -2.28 4.07 s-3.3534 1.69 -5.5 1.69 s-3.98 -0.56334 -5.5 -1.69 s-2.28 -2.4834 -2.28 -4.07 c0 -1.6 0.76 -2.9634 2.28 -4.09 s3.3534 -1.69 5.5 -1.69 s3.98 0.56334 5.5 1.69 s2.28 2.49 2.28 4.09 z M90.36 13.559999999999999 c-0.37334 0 -0.55994 0.18666 -0.55994 0.56 c0 0.36 0.18666 0.54 0.56 0.54 l6.44 0 l0 0.68 c-0.73334 0.8 -1.6667 1.4233 -2.8 1.87 s-2.3466 0.67 -3.64 0.67 c-2.1466 0 -3.98 -0.56334 -5.5 -1.69 s-2.28 -2.4834 -2.28 -4.07 c0 -1.6 0.76 -2.9634 2.28 -4.09 s3.3534 -1.69 5.5 -1.69 c1.32 0 2.5566 0.23334 3.71 0.7 s2.09 1.1133 2.81 1.94 l0 0 c0.10666 0.13334 0.24666 0.2 0.42 0.2 c0.37334 0 0.56 -0.18666 0.56 -0.56 c0 -0.13334 -0.04666 -0.25334 -0.14 -0.36 c-0.84 -0.94666 -1.9067 -1.69 -3.2 -2.23 s-2.68 -0.81 -4.16 -0.81 c-2.4266 0 -4.5066 0.66 -6.24 1.98 c-1.7733 1.3467 -2.66 2.9866 -2.66 4.92 s0.88666 3.5734 2.66 4.92 c1.72 1.3067 3.8 1.96 6.24 1.96 c2.5466 0 4.6934 -0.71334 6.44 -2.14 l0 1.26 c0 0.36 0.18666 0.54 0.56 0.54 c0.36 0 0.54 -0.18 0.54 -0.54 l0 -4.56 l-7.54 0 z M115.9 5.5600000000000005 c-0.14666 0 -0.27334 0.05336 -0.38 0.16002 l0 0 l-7.62 7.6 l-7.6 -7.6 c-0.10666 -0.10666 -0.24 -0.16 -0.4 -0.16 c-0.36 0 -0.54 0.18666 -0.54 0.56 c0 0.14666 0.05334 0.27332 0.16 0.37998 l7.82 7.84 l0 3.78 c0 0.36 0.18666 0.54 0.56 0.54 s0.56 -0.18 0.56 -0.54 l0 -3.78 l7.84 -7.84 c0.10666 -0.10666 0.16 -0.24 0.16 -0.4 c0 -0.36 -0.18666 -0.54 -0.56 -0.54 z"></path></g>
			</g>
		</svg>
	