
        <svg xmlns="http://www.w3.org/2000/svg" xmlns:xlink="http://www.w3.org/1999/xlink" version="1.1" width="3300" 
        height="2113.764083064845" viewBox="0 0 3300 2113.764083064845">
			
			<g transform="scale(15) translate(10, 10)">
				<defs id="SvgjsDefs1661"></defs><g id="SvgjsG1662" featureKey="symbolFeature-0" transform="matrix(3.448716732929925,0,0,3.448716732929925,58.621751679695485,-5.389209028832602)" fill="#ff5722"><defs xmlns="http://www.w3.org/2000/svg"></defs><path xmlns="http://www.w3.org/2000/svg" d="m21.62,10.06c1.39-3.11,1.45-5.8.15-8.23-.13-.24-.44-.34-.68-.21-.24.13-.34.43-.21.68,1.15,2.16,1.09,4.5-.17,7.32-.19-.07-.37-.14-.59-.19l-.41-.09c-.3-.07-.63,0-.89.16-.26.17-.44.44-.5.75l-.1.51c-1.02.16-1.72,1.07-2.41,2.41-1.06,2.44-2.86,3.99-3.84,4.7-.55.41-1.24.6-1.93.56l-3.86-.21c-.74-.12-1.49.03-2.12.41l-1.3.79c-.87.53-1.43,1.46-1.49,2.49-.01.24.14.45.37.51.04.01.09.02.13.02.18,0,.36-.1.44-.27.16-.3.76-.46,1.24-.59.15-.04.29-.07.42-.11l.77-.24c.41-.12.8-.12,1.18-.01l2.99.89c1.03.3,2.1.34,3.18.12.31-.06.65-.12.99-.18,2.19-.37,5.2-.87,7.43-4.57,1.11-1.85,1.55-3.29,1.33-4.41l.49-.39c.38-.29.54-.79.39-1.25-.18-.57-.53-1.02-1.03-1.36Zm-2.31.39c.01-.06.04-.09.07-.1.02-.01.07-.04.12-.02l.41.09c1.01.22,1.57.63,1.78,1.3,0,.02.03.11-.05.17l-.28.22c-.32-.46-.8-.81-1.44-1.06-.02,0-.05-.02-.07-.02-.22-.08-.42-.14-.61-.19l.07-.39Zm.26,6.51c-2,3.31-4.51,3.73-6.74,4.1-.36.06-.7.12-1.03.18-.92.19-1.83.15-2.7-.1l-2.99-.89c-.27-.08-.55-.12-.84-.12s-.6.04-.91.13l-.78.24c-.12.04-.25.07-.38.1-.15.04-.3.08-.46.13.15-.18.33-.34.53-.46l1.3-.79c.43-.26.94-.35,1.49-.27l3.91.22c.94.05,1.85-.21,2.58-.75,1.06-.77,3.01-2.45,4.15-5.08.92-1.77,1.46-1.89,1.9-1.86.25.01.55.09.95.25.02,0,.05.02.07.02.57.23.93.56,1.08,1.01.29.84-.11,2.21-1.15,3.94Z" style="stroke-width: 0px;"></path><path xmlns="http://www.w3.org/2000/svg" d="m19.86,13.78c-.25-.11-.55,0-.66.26-.64,1.47-1,2.14-1.93,3.22-.18.21-.16.53.05.71.09.08.21.12.33.12.14,0,.28-.06.38-.17,1-1.17,1.42-1.93,2.09-3.48.11-.25,0-.55-.26-.66Z" style="stroke-width: 0px;"></path><path xmlns="http://www.w3.org/2000/svg" d="m2.78,17.57c.11,0,.22-.04.31-.11.22-.17.25-.49.08-.7-.91-1.14-.69-2.44-.27-3.42.19.86.62,1.67,1.23,2.13.77.59,1.71.57,2.58-.06,1.96-1.4.87-3.3-.09-4.97-.62-1.08-1.26-2.19-1.29-3.28-.07-2.3.78-3.42,1.54-3.96-.42.96-.83,2.29-.47,3.25.2.52.6.89,1.22,1.08.84.16,1.37-.13,1.67-.4.25-.23.43-.53.54-.84.12.62.07,1.28-.18,1.89-.35.86-.67,2.09-.25,3.02.21.48.59.82,1.11,1.01.76.28,1.58.14,2.13-.36.53-.48,1.03-1.45.64-3.41.58.04,1.51.28,2.05,1.35.12.25.42.35.67.22.25-.12.35-.42.22-.67-.92-1.85-2.79-2.03-3.66-1.87-.14.03-.26.11-.33.22-.07.12-.1.26-.06.4.38,1.44.31,2.54-.21,3.01-.33.3-.79.29-1.12.17-.27-.1-.44-.25-.54-.48-.21-.48-.12-1.29.27-2.24.56-1.38.38-2.92-.48-4.12l-.13-.19c-.13-.19-.36-.27-.58-.19-.21.08-.35.29-.33.52.03.34.01,1.4-.44,1.82-.07.06-.27.25-.75.17-.27-.08-.44-.23-.52-.46-.33-.86.45-2.67,1.02-3.61.1-.16.1-.37,0-.53s-.29-.25-.48-.22c-.04,0-3.68.5-3.54,5.46.04,1.34.77,2.62,1.43,3.75,1.14,1.98,1.49,2.86.37,3.66-.52.37-.98.4-1.39.08-.75-.57-1.16-2.1-.81-3.02.08-.23,0-.48-.21-.61-.21-.12-.48-.08-.63.1-1.02,1.18-2.48,4-.69,6.23.1.12.24.19.39.19Z" style="stroke-width: 0px;"></path></g><g id="SvgjsG1663" featureKey="nameFeature-0" transform="matrix(0.8925184372347535,0,0,0.8925184372347535,-1.428029201665437,84.68135834780043)" fill="#303841"><path d="M14.88 40.6 c-3.88 0 -7.04 -0.84 -9.52 -2.56 s-3.72 -4.04 -3.72 -7.04 l0 -0.36 l-0.04 -1.6 l7.84 0 l0 1.8 c0 0.68 0.48 1.32 1.4 1.92 s2.2 0.92 3.88 0.92 c1.4 0 2.4 -0.2 3.04 -0.56 c0.6 -0.36 0.92 -0.84 0.92 -1.36 c0 -0.64 -0.4 -1.2 -1.16 -1.68 c-0.8 -0.48 -2.2 -1.04 -4.16 -1.72 c-1.24 -0.44 -2.28 -0.8 -3.12 -1.12 s-1.84 -0.8 -3 -1.44 c-1.16 -0.6 -2.12 -1.28 -2.8 -1.96 s-1.28 -1.52 -1.8 -2.56 s-0.76 -2.16 -0.76 -3.4 c0 -2.92 1.12 -5.28 3.4 -7.04 s5.2 -2.64 8.8 -2.64 c3.72 0 6.76 0.92 9.16 2.76 s3.6 4.28 3.6 7.32 l0 1.96 l-7.8 0 l0 -1.8 c0 -0.84 -0.4 -1.64 -1.24 -2.32 s-2.04 -1 -3.56 -1 c-1.24 0 -2.2 0.2 -2.84 0.6 c-0.64 0.44 -0.96 0.92 -0.96 1.52 s0.36 1.08 1.08 1.48 c0.72 0.44 2.08 1 4.08 1.68 l2.04 0.72 l2.16 0.88 c0.92 0.44 1.68 0.8 2.24 1.16 s1.2 0.84 1.96 1.44 s1.32 1.24 1.76 1.84 c0.4 0.6 0.76 1.36 1.08 2.2 c0.28 0.84 0.44 1.76 0.44 2.68 c0 2.96 -1.16 5.24 -3.44 6.84 c-2.28 1.64 -5.28 2.44 -8.96 2.44 z M40.161 40 l-8.76 -31.2 l8.52 0 l5.04 18.6 l5.84 -18.6 l7.12 0 l5.84 18.56 l5.04 -18.56 l8.56 0 l-8.76 31.2 l-8.28 0 l-5.96 -18.12 l-5.92 18.12 l-8.28 0 z M98.042 40.6 c-4.52 0 -8.4 -1.6 -11.64 -4.76 c-3.28 -3.16 -4.92 -7 -4.92 -11.44 s1.64 -8.28 4.92 -11.44 c3.24 -3.16 7.12 -4.76 11.64 -4.76 c4.56 0 8.48 1.6 11.72 4.76 s4.84 7 4.84 11.44 s-1.6 8.28 -4.84 11.44 s-7.16 4.76 -11.72 4.76 z M98.042 32.88 c2.4 0 4.4 -0.84 6.04 -2.48 s2.44 -3.64 2.44 -6 s-0.8 -4.4 -2.44 -6.04 s-3.64 -2.44 -6.04 -2.44 c-2.36 0 -4.36 0.84 -6 2.48 s-2.48 3.64 -2.48 6 s0.84 4.36 2.48 6 s3.64 2.48 6 2.48 z M135.28300000000002 40.6 c-4.52 0 -8.4 -1.6 -11.64 -4.76 c-3.28 -3.16 -4.92 -7 -4.92 -11.44 s1.64 -8.28 4.92 -11.44 c3.24 -3.16 7.12 -4.76 11.64 -4.76 c4.56 0 8.48 1.6 11.72 4.76 s4.84 7 4.84 11.44 s-1.6 8.28 -4.84 11.44 s-7.16 4.76 -11.72 4.76 z M135.28300000000002 32.88 c2.4 0 4.4 -0.84 6.04 -2.48 s2.44 -3.64 2.44 -6 s-0.8 -4.4 -2.44 -6.04 s-3.64 -2.44 -6.04 -2.44 c-2.36 0 -4.36 0.84 -6 2.48 s-2.48 3.64 -2.48 6 s0.84 4.36 2.48 6 s3.64 2.48 6 2.48 z M172.524 40.6 c-4.52 0 -8.4 -1.6 -11.64 -4.76 c-3.28 -3.16 -4.92 -7 -4.92 -11.44 s1.64 -8.28 4.92 -11.44 c3.24 -3.16 7.12 -4.76 11.64 -4.76 c4.56 0 8.48 1.6 11.72 4.76 c2.44 2.36 3.96 5.12 4.52 8.2 l-8.36 0 c-0.4 -1.04 -1.04 -2 -1.84 -2.8 c-1.64 -1.64 -3.64 -2.44 -6.04 -2.44 c-2.36 0 -4.36 0.84 -6 2.48 s-2.48 3.64 -2.48 6 s0.84 4.36 2.48 6 s3.64 2.48 6 2.48 c2.4 0 4.4 -0.84 6.04 -2.48 l0.48 -0.52 l-7.6 0 l0.04 -6.04 l17.44 0 l0 2.72 c-0.44 3.56 -1.96 6.64 -4.68 9.28 c-3.24 3.16 -7.16 4.76 -11.72 4.76 z M205.36499999999998 40 l0 -11.44 l-12.32 -19.76 l9.4 0 l6.88 11.32 l6.92 -11.32 l9.44 0 l-12.36 19.76 l0 11.44 l-7.96 0 z"></path></g>
			</g>
		</svg>
	