<svg viewBox="0 0 349.99999999999994 217.17893121649274" height="217.17893121649274" width="349.99999999999994" style="width: 350px; height: 217.179px; position: absolute; top: 50%; left: 50%; transform: translate(-50%, -50%) scale(0.864286); z-index: 0; cursor: pointer;"><defs id="SvgjsDefs1001"></defs><g id="SvgjsG1007" featurekey="1p4tPl-0" transform="matrix(6.349722149332967,0,0,6.349722149332967,98.93883914290089,-9.922525561759121)" fill="#ffcd38"><defs xmlns="http://www.w3.org/2000/svg"></defs><path xmlns="http://www.w3.org/2000/svg" d="m21.62,10.06c1.39-3.11,1.45-5.8.15-8.23-.13-.24-.44-.34-.68-.21-.24.13-.34.43-.21.68,1.15,2.16,1.09,4.5-.17,7.32-.19-.07-.37-.14-.59-.19l-.41-.09c-.3-.07-.63,0-.89.16-.26.17-.44.44-.5.75l-.1.51c-1.02.16-1.72,1.07-2.41,2.41-1.06,2.44-2.86,3.99-3.84,4.7-.55.41-1.24.6-1.93.56l-3.86-.21c-.74-.12-1.49.03-2.12.41l-1.3.79c-.87.53-1.43,1.46-1.49,2.49-.01.24.14.45.37.51.04.01.09.02.13.02.18,0,.36-.1.44-.27.16-.3.76-.46,1.24-.59.15-.04.29-.07.42-.11l.77-.24c.41-.12.8-.12,1.18-.01l2.99.89c1.03.3,2.1.34,3.18.12.31-.06.65-.12.99-.18,2.19-.37,5.2-.87,7.43-4.57,1.11-1.85,1.55-3.29,1.33-4.41l.49-.39c.38-.29.54-.79.39-1.25-.18-.57-.53-1.02-1.03-1.36Zm-2.31.39c.01-.06.04-.09.07-.1.02-.01.07-.04.12-.02l.41.09c1.01.22,1.57.63,1.78,1.3,0,.02.03.11-.05.17l-.28.22c-.32-.46-.8-.81-1.44-1.06-.02,0-.05-.02-.07-.02-.22-.08-.42-.14-.61-.19l.07-.39Zm.26,6.51c-2,3.31-4.51,3.73-6.74,4.1-.36.06-.7.12-1.03.18-.92.19-1.83.15-2.7-.1l-2.99-.89c-.27-.08-.55-.12-.84-.12s-.6.04-.91.13l-.78.24c-.12.04-.25.07-.38.1-.15.04-.3.08-.46.13.15-.18.33-.34.53-.46l1.3-.79c.43-.26.94-.35,1.49-.27l3.91.22c.94.05,1.85-.21,2.58-.75,1.06-.77,3.01-2.45,4.15-5.08.92-1.77,1.46-1.89,1.9-1.86.25.01.55.09.95.25.02,0,.05.02.07.02.57.23.93.56,1.08,1.01.29.84-.11,2.21-1.15,3.94Z" style="stroke-width: 0px;"></path><path xmlns="http://www.w3.org/2000/svg" d="m19.86,13.78c-.25-.11-.55,0-.66.26-.64,1.47-1,2.14-1.93,3.22-.18.21-.16.53.05.71.09.08.21.12.33.12.14,0,.28-.06.38-.17,1-1.17,1.42-1.93,2.09-3.48.11-.25,0-.55-.26-.66Z" style="stroke-width: 0px;"></path><path xmlns="http://www.w3.org/2000/svg" d="m2.78,17.57c.11,0,.22-.04.31-.11.22-.17.25-.49.08-.7-.91-1.14-.69-2.44-.27-3.42.19.86.62,1.67,1.23,2.13.77.59,1.71.57,2.58-.06,1.96-1.4.87-3.3-.09-4.97-.62-1.08-1.26-2.19-1.29-3.28-.07-2.3.78-3.42,1.54-3.96-.42.96-.83,2.29-.47,3.25.2.52.6.89,1.22,1.08.84.16,1.37-.13,1.67-.4.25-.23.43-.53.54-.84.12.62.07,1.28-.18,1.89-.35.86-.67,2.09-.25,3.02.21.48.59.82,1.11,1.01.76.28,1.58.14,2.13-.36.53-.48,1.03-1.45.64-3.41.58.04,1.51.28,2.05,1.35.12.25.42.35.67.22.25-.12.35-.42.22-.67-.92-1.85-2.79-2.03-3.66-1.87-.14.03-.26.11-.33.22-.07.12-.1.26-.06.4.38,1.44.31,2.54-.21,3.01-.33.3-.79.29-1.12.17-.27-.1-.44-.25-.54-.48-.21-.48-.12-1.29.27-2.24.56-1.38.38-2.92-.48-4.12l-.13-.19c-.13-.19-.36-.27-.58-.19-.21.08-.35.29-.33.52.03.34.01,1.4-.44,1.82-.07.06-.27.25-.75.17-.27-.08-.44-.23-.52-.46-.33-.86.45-2.67,1.02-3.61.1-.16.1-.37,0-.53s-.29-.25-.48-.22c-.04,0-3.68.5-3.54,5.46.04,1.34.77,2.62,1.43,3.75,1.14,1.98,1.49,2.86.37,3.66-.52.37-.98.4-1.39.08-.75-.57-1.16-2.1-.81-3.02.08-.23,0-.48-.21-.61-.21-.12-.48-.08-.63.1-1.02,1.18-2.48,4-.69,6.23.1.12.24.19.39.19Z" style="stroke-width: 0px;"></path></g><g id="SvgjsG1008" featurekey="dYASrj-0" transform="matrix(4.08782981514179,0,0,4.08782981514179,-4.0878307897563655,134.03247410198458)" fill="#4a4a4a"><path d="M13.8 15.46 q0 1.46 -0.88 2.6 q-0.86 1.08 -2.37 1.68 t-3.41 0.6 q-1.74 0 -3.38 -0.81 t-2.76 -2.25 l1.56 -1.46 q1.94 2.34 4.58 2.34 q1.16 0 2.12 -0.28 q1.06 -0.32 1.64 -0.9 q0.66 -0.64 0.66 -1.52 q0 -1.06 -0.66 -1.6 q-0.56 -0.46 -1.66 -0.6 q-0.64 -0.08 -2.1 -0.08 q-2.68 0 -4.09 -0.98 t-1.41 -2.88 q0 -1.2 0.71 -2.28 t1.95 -1.72 q1.28 -0.68 2.84 -0.68 q1.76 0 3.18 0.54 q1.52 0.58 2.82 1.82 l-1.36 1.6 q-1.22 -0.98 -2.22 -1.37 t-2.42 -0.39 q-0.82 0 -1.53 0.34 t-1.13 0.91 t-0.42 1.21 q0 1.72 3.18 1.72 q2.54 0 4.02 0.52 q1.4 0.5 2 1.52 q0.54 0.9 0.54 2.4 z M21.96 12.34 l-0.84 -2.7 l2.34 0 l2.36 7.6 l2.78 -7.6 l2.2 0 l-3.64 10.36 l-2.78 0 l-1.3 -4.1 l-1.06 4.1 l-2.74 0 l-3.58 -10.36 l2.22 0 l2.68 7.6 z M43.18 14.74 q0 -1.1 -0.6 -1.9 q-0.52 -0.7 -1.46 -1.08 q-0.86 -0.34 -1.9 -0.34 t-1.92 0.36 q-0.94 0.38 -1.46 1.12 q-0.58 0.8 -0.58 1.92 t0.6 1.92 q0.52 0.72 1.46 1.12 q0.88 0.36 1.9 0.36 t1.92 -0.4 q0.92 -0.42 1.46 -1.18 q0.58 -0.82 0.58 -1.9 z M45.34 14.719999999999999 q0 1.7 -0.9 3.02 q-0.82 1.22 -2.26 1.92 q-1.38 0.66 -2.98 0.66 t-2.98 -0.66 q-1.42 -0.68 -2.24 -1.88 q-0.88 -1.32 -0.88 -3 t0.9 -2.98 q0.82 -1.2 2.26 -1.86 q1.38 -0.64 2.98 -0.64 t2.96 0.6 q1.42 0.64 2.24 1.82 q0.9 1.28 0.9 3 z M58.22 14.74 q0 -1.1 -0.6 -1.9 q-0.52 -0.7 -1.46 -1.08 q-0.86 -0.34 -1.9 -0.34 t-1.92 0.36 q-0.94 0.38 -1.46 1.12 q-0.58 0.8 -0.58 1.92 t0.6 1.92 q0.52 0.72 1.46 1.12 q0.88 0.36 1.9 0.36 t1.92 -0.4 q0.92 -0.42 1.46 -1.18 q0.58 -0.82 0.58 -1.9 z M60.38 14.719999999999999 q0 1.7 -0.9 3.02 q-0.82 1.22 -2.26 1.92 q-1.38 0.66 -2.98 0.66 t-2.98 -0.66 q-1.42 -0.68 -2.24 -1.88 q-0.88 -1.32 -0.88 -3 t0.9 -2.98 q0.82 -1.2 2.26 -1.86 q1.38 -0.64 2.98 -0.64 t2.96 0.6 q1.42 0.64 2.24 1.82 q0.9 1.28 0.9 3 z M73.54 14.1 l0 4.74 q-0.84 0.72 -1.95 1.1 t-2.31 0.38 q-1.6 0 -2.98 -0.66 q-1.42 -0.68 -2.24 -1.88 q-0.88 -1.32 -0.88 -3 t0.9 -2.98 q0.82 -1.2 2.26 -1.86 q1.38 -0.64 2.96 -0.64 q1.16 0 2.24 0.33 t1.92 0.97 l-1.38 1.6 q-0.58 -0.4 -1.31 -0.61 t-1.47 -0.21 q-1.04 0 -1.92 0.38 q-0.92 0.38 -1.44 1.12 q-0.58 0.82 -0.58 1.94 t0.58 1.92 q0.54 0.74 1.48 1.14 q0.86 0.36 1.9 0.36 q1.16 0 2.18 -0.54 l0 -1.66 l-1.06 0 l-0.88 -1.94 l3.98 0 z M86.62 9.64 l-4.28 6.18 l0 4.18 l-2.04 0 l0 -4.18 l-4.36 -6.18 l2.6 0 l2.76 4.08 l2.84 -4.08 l2.48 0 z"></path></g></svg>