<svg height="217.179" width="350" style="z-index:0;cursor:pointer;width:350px;height:217.179px;position:absolute;top:50%;left:50%;transform:translate(-50%,-50%)scale(.864286)"><g id="SvgjsG1007" fill="#ffcd38"><path xmlns="http://www.w3.org/2000/svg" d="M21.62 10.06c1.39-3.11 1.45-5.8.15-8.23a.51.51 0 0 0-.68-.21c-.24.13-.34.43-.21.68 1.15 2.16 1.09 4.5-.17 7.32-.19-.07-.37-.14-.59-.19l-.41-.09c-.3-.07-.63 0-.89.16-.26.17-.44.44-.5.75l-.1.51c-1.02.16-1.72 1.07-2.41 2.41-1.06 2.44-2.86 3.99-3.84 4.7-.55.41-1.24.6-1.93.56l-3.86-.21c-.74-.12-1.49.03-2.12.41l-1.3.79c-.87.53-1.43 1.46-1.49 2.49-.01.24.14.45.37.51a.487.487 0 0 0 .57-.25c.16-.3.76-.46 1.24-.59.15-.04.29-.07.42-.11l.77-.24c.41-.12.8-.12 1.18-.01l2.99.89c1.03.3 2.1.34 3.18.12.31-.06.65-.12.99-.18 2.19-.37 5.2-.87 7.43-4.57 1.11-1.85 1.55-3.29 1.33-4.41l.49-.39c.38-.29.54-.79.39-1.25-.18-.57-.53-1.02-1.03-1.36Zm-2.31.39c.01-.06.04-.09.07-.1.02-.01.07-.04.12-.02l.41.09c1.01.22 1.57.63 1.78 1.3 0 .02.03.11-.05.17l-.28.22c-.32-.46-.8-.81-1.44-1.06-.02 0-.05-.02-.07-.02a6.89 6.89 0 0 0-.61-.19l.07-.39Zm.26 6.51c-2 3.31-4.51 3.73-6.74 4.1-.36.06-.7.12-1.03.18-.92.19-1.83.15-2.7-.1l-2.99-.89c-.27-.08-.55-.12-.84-.12s-.6.04-.91.13l-.78.24c-.12.04-.25.07-.38.1-.15.04-.3.08-.46.13.15-.18.33-.34.53-.46l1.3-.79c.43-.26.94-.35 1.49-.27l3.91.22c.94.05 1.85-.21 2.58-.75 1.06-.77 3.01-2.45 4.15-5.08.92-1.77 1.46-1.89 1.9-1.86.25.01.55.09.95.25.02 0 .05.02.07.02.57.23.93.56 1.08 1.01.29.84-.11 2.21-1.15 3.94Z" style="stroke-width:0" transform="translate(98.939 -9.923) scale(6.34972)"/><path xmlns="http://www.w3.org/2000/svg" d="M19.86 13.78c-.25-.11-.55 0-.66.26-.64 1.47-1 2.14-1.93 3.22-.18.21-.16.53.05.71.09.08.21.12.33.12.14 0 .28-.06.38-.17 1-1.17 1.42-1.93 2.09-3.48.11-.25 0-.55-.26-.66ZM2.78 17.57c.11 0 .22-.04.31-.11.22-.17.25-.49.08-.7-.91-1.14-.69-2.44-.27-3.42.19.86.62 1.67 1.23 2.13.77.59 1.71.57 2.58-.06 1.96-1.4.87-3.3-.09-4.97C6 9.36 5.36 8.25 5.33 7.16c-.07-2.3.78-3.42 1.54-3.96-.42.96-.83 2.29-.47 3.25.2.52.6.89 1.22 1.08.84.16 1.37-.13 1.67-.4.25-.23.43-.53.54-.84.12.62.07 1.28-.18 1.89-.35.86-.67 2.09-.25 3.02.21.48.59.82 1.11 1.01.76.28 1.58.14 2.13-.36.53-.48 1.03-1.45.64-3.41.58.04 1.51.28 2.05 1.35.12.25.42.35.67.22.25-.12.35-.42.22-.67-.92-1.85-2.79-2.03-3.66-1.87-.14.03-.26.11-.33.22-.07.12-.1.26-.06.4.38 1.44.31 2.54-.21 3.01-.33.3-.79.29-1.12.17-.27-.1-.44-.25-.54-.48-.21-.48-.12-1.29.27-2.24.56-1.38.38-2.92-.48-4.12l-.13-.19c-.13-.19-.36-.27-.58-.19-.21.08-.35.29-.33.52.03.34.01 1.4-.44 1.82-.07.06-.27.25-.75.17-.27-.08-.44-.23-.52-.46-.33-.86.45-2.67 1.02-3.61.1-.16.1-.37 0-.53s-.29-.25-.48-.22c-.04 0-3.68.5-3.54 5.46.04 1.34.77 2.62 1.43 3.75 1.14 1.98 1.49 2.86.37 3.66-.52.37-.98.4-1.39.08-.75-.57-1.16-2.1-.81-3.02a.51.51 0 0 0-.21-.61.5.5 0 0 0-.63.1c-1.02 1.18-2.48 4-.69 6.23.1.12.24.19.39.19Z" style="stroke-width:0" transform="translate(98.939 -9.923) scale(6.34972)"/></g><path d="M13.8 15.46q0 1.46-.88 2.6-.86 1.08-2.37 1.68t-3.41.6q-1.74 0-3.38-.81T1 17.28l1.56-1.46q1.94 2.34 4.58 2.34 1.16 0 2.12-.28 1.06-.32 1.64-.9.66-.64.66-1.52 0-1.06-.66-1.6-.56-.46-1.66-.6-.64-.08-2.1-.08-2.68 0-4.09-.98T1.64 9.32q0-1.2.71-2.28T4.3 5.32q1.28-.68 2.84-.68 1.76 0 3.18.54 1.52.58 2.82 1.82l-1.36 1.6q-1.22-.98-2.22-1.37t-2.42-.39q-.82 0-1.53.34t-1.13.91-.42 1.21q0 1.72 3.18 1.72 2.54 0 4.02.52 1.4.5 2 1.52.54.9.54 2.4zm8.16-3.12-.84-2.7h2.34l2.36 7.6 2.78-7.6h2.2L27.16 20h-2.78l-1.3-4.1-1.06 4.1h-2.74L15.7 9.64h2.22l2.68 7.6zm21.22 2.4q0-1.1-.6-1.9-.52-.7-1.46-1.08-.86-.34-1.9-.34t-1.92.36q-.94.38-1.46 1.12-.58.8-.58 1.92t.6 1.92q.52.72 1.46 1.12.88.36 1.9.36t1.92-.4q.92-.42 1.46-1.18.58-.82.58-1.9zm2.16-.02q0 1.7-.9 3.02-.82 1.22-2.26 1.92-1.38.66-2.98.66t-2.98-.66q-1.42-.68-2.24-1.88-.88-1.32-.88-3t.9-2.98q.82-1.2 2.26-1.86 1.38-.64 2.98-.64t2.96.6q1.42.64 2.24 1.82.9 1.28.9 3zm12.88.02q0-1.1-.6-1.9-.52-.7-1.46-1.08-.86-.34-1.9-.34t-1.92.36q-.94.38-1.46 1.12-.58.8-.58 1.92t.6 1.92q.52.72 1.46 1.12.88.36 1.9.36t1.92-.4q.92-.42 1.46-1.18.58-.82.58-1.9zm2.16-.02q0 1.7-.9 3.02-.82 1.22-2.26 1.92-1.38.66-2.98.66t-2.98-.66q-1.42-.68-2.24-1.88-.88-1.32-.88-3t.9-2.98q.82-1.2 2.26-1.86 1.38-.64 2.98-.64t2.96.6q1.42.64 2.24 1.82.9 1.28.9 3zm13.16-.62v4.74q-.84.72-1.95 1.1t-2.31.38q-1.6 0-2.98-.66-1.42-.68-2.24-1.88-.88-1.32-.88-3t.9-2.98q.82-1.2 2.26-1.86 1.38-.64 2.96-.64 1.16 0 2.24.33t1.92.97l-1.38 1.6q-.58-.4-1.31-.61t-1.47-.21q-1.04 0-1.92.38-.92.38-1.44 1.12-.58.82-.58 1.94t.58 1.92q.54.74 1.48 1.14.86.36 1.9.36 1.16 0 2.18-.54v-1.66h-1.06l-.88-1.94h3.98zm13.08-4.46-4.28 6.18V20H80.3v-4.18l-4.36-6.18h2.6l2.76 4.08 2.84-4.08h2.48z" transform="matrix(4.08783 0 0 4.08783 -4.088 134.032)" id="SvgjsG1008" fill="#4a4a4a"/></svg>