<svg xmlns="http://www.w3.org/2000/svg" width="3300" height="2113.764"><g transform="matrix(15 0 0 15 150 150)"><g id="SvgjsG1662" fill="#ff5722"><path xmlns="http://www.w3.org/2000/svg" d="M21.62 10.06c1.39-3.11 1.45-5.8.15-8.23a.51.51 0 0 0-.68-.21c-.24.13-.34.43-.21.68 1.15 2.16 1.09 4.5-.17 7.32-.19-.07-.37-.14-.59-.19l-.41-.09c-.3-.07-.63 0-.89.16-.26.17-.44.44-.5.75l-.1.51c-1.02.16-1.72 1.07-2.41 2.41-1.06 2.44-2.86 3.99-3.84 4.7-.55.41-1.24.6-1.93.56l-3.86-.21c-.74-.12-1.49.03-2.12.41l-1.3.79c-.87.53-1.43 1.46-1.49 2.49-.01.24.14.45.37.51a.487.487 0 0 0 .57-.25c.16-.3.76-.46 1.24-.59.15-.04.29-.07.42-.11l.77-.24c.41-.12.8-.12 1.18-.01l2.99.89c1.03.3 2.1.34 3.18.12.31-.06.65-.12.99-.18 2.19-.37 5.2-.87 7.43-4.57 1.11-1.85 1.55-3.29 1.33-4.41l.49-.39c.38-.29.54-.79.39-1.25-.18-.57-.53-1.02-1.03-1.36Zm-2.31.39c.01-.06.04-.09.07-.1.02-.01.07-.04.12-.02l.41.09c1.01.22 1.57.63 1.78 1.3 0 .02.03.11-.05.17l-.28.22c-.32-.46-.8-.81-1.44-1.06-.02 0-.05-.02-.07-.02a6.89 6.89 0 0 0-.61-.19l.07-.39Zm.26 6.51c-2 3.31-4.51 3.73-6.74 4.1-.36.06-.7.12-1.03.18-.92.19-1.83.15-2.7-.1l-2.99-.89c-.27-.08-.55-.12-.84-.12s-.6.04-.91.13l-.78.24c-.12.04-.25.07-.38.1-.15.04-.3.08-.46.13.15-.18.33-.34.53-.46l1.3-.79c.43-.26.94-.35 1.49-.27l3.91.22c.94.05 1.85-.21 2.58-.75 1.06-.77 3.01-2.45 4.15-5.08.92-1.77 1.46-1.89 1.9-1.86.25.01.55.09.95.25.02 0 .05.02.07.02.57.23.93.56 1.08 1.01.29.84-.11 2.21-1.15 3.94Z" style="stroke-width:0" transform="matrix(3.44872 0 0 3.44872 58.622 -5.39)"/><path xmlns="http://www.w3.org/2000/svg" d="M19.86 13.78c-.25-.11-.55 0-.66.26-.64 1.47-1 2.14-1.93 3.22-.18.21-.16.53.05.71.09.08.21.12.33.12.14 0 .28-.06.38-.17 1-1.17 1.42-1.93 2.09-3.48.11-.25 0-.55-.26-.66ZM2.78 17.57c.11 0 .22-.04.31-.11.22-.17.25-.49.08-.7-.91-1.14-.69-2.44-.27-3.42.19.86.62 1.67 1.23 2.13.77.59 1.71.57 2.58-.06 1.96-1.4.87-3.3-.09-4.97C6 9.36 5.36 8.25 5.33 7.16c-.07-2.3.78-3.42 1.54-3.96-.42.96-.83 2.29-.47 3.25.2.52.6.89 1.22 1.08.84.16 1.37-.13 1.67-.4.25-.23.43-.53.54-.84.12.62.07 1.28-.18 1.89-.35.86-.67 2.09-.25 3.02.21.48.59.82 1.11 1.01.76.28 1.58.14 2.13-.36.53-.48 1.03-1.45.64-3.41.58.04 1.51.28 2.05 1.35.12.25.42.35.67.22.25-.12.35-.42.22-.67-.92-1.85-2.79-2.03-3.66-1.87-.14.03-.26.11-.33.22-.07.12-.1.26-.06.4.38 1.44.31 2.54-.21 3.01-.33.3-.79.29-1.12.17-.27-.1-.44-.25-.54-.48-.21-.48-.12-1.29.27-2.24.56-1.38.38-2.92-.48-4.12l-.13-.19c-.13-.19-.36-.27-.58-.19-.21.08-.35.29-.33.52.03.34.01 1.4-.44 1.82-.07.06-.27.25-.75.17-.27-.08-.44-.23-.52-.46-.33-.86.45-2.67 1.02-3.61.1-.16.1-.37 0-.53s-.29-.25-.48-.22c-.04 0-3.68.5-3.54 5.46.04 1.34.77 2.62 1.43 3.75 1.14 1.98 1.49 2.86.37 3.66-.52.37-.98.4-1.39.08-.75-.57-1.16-2.1-.81-3.02a.51.51 0 0 0-.21-.61.5.5 0 0 0-.63.1c-1.02 1.18-2.48 4-.69 6.23.1.12.24.19.39.19Z" style="stroke-width:0" transform="matrix(3.44872 0 0 3.44872 58.622 -5.39)"/></g><path d="M14.88 40.6c-3.88 0-7.04-.84-9.52-2.56S1.64 34 1.64 31v-.36l-.04-1.6h7.84v1.8c0 .68.48 1.32 1.4 1.92s2.2.92 3.88.92c1.4 0 2.4-.2 3.04-.56.6-.36.92-.84.92-1.36 0-.64-.4-1.2-1.16-1.68-.8-.48-2.2-1.04-4.16-1.72-1.24-.44-2.28-.8-3.12-1.12s-1.84-.8-3-1.44c-1.16-.6-2.12-1.28-2.8-1.96s-1.28-1.52-1.8-2.56-.76-2.16-.76-3.4c0-2.92 1.12-5.28 3.4-7.04s5.2-2.64 8.8-2.64c3.72 0 6.76.92 9.16 2.76s3.6 4.28 3.6 7.32v1.96h-7.8v-1.8c0-.84-.4-1.64-1.24-2.32s-2.04-1-3.56-1c-1.24 0-2.2.2-2.84.6-.64.44-.96.92-.96 1.52s.36 1.08 1.08 1.48c.72.44 2.08 1 4.08 1.68l2.04.72 2.16.88c.92.44 1.68.8 2.24 1.16s1.2.84 1.96 1.44 1.32 1.24 1.76 1.84c.4.6.76 1.36 1.08 2.2.28.84.44 1.76.44 2.68 0 2.96-1.16 5.24-3.44 6.84-2.28 1.64-5.28 2.44-8.96 2.44zm25.281-.6-8.76-31.2h8.52l5.04 18.6 5.84-18.6h7.12l5.84 18.56 5.04-18.56h8.56L68.601 40h-8.28l-5.96-18.12L48.441 40h-8.28zm57.881.6c-4.52 0-8.4-1.6-11.64-4.76-3.28-3.16-4.92-7-4.92-11.44s1.64-8.28 4.92-11.44c3.24-3.16 7.12-4.76 11.64-4.76 4.56 0 8.48 1.6 11.72 4.76s4.84 7 4.84 11.44-1.6 8.28-4.84 11.44-7.16 4.76-11.72 4.76zm0-7.72c2.4 0 4.4-.84 6.04-2.48s2.44-3.64 2.44-6-.8-4.4-2.44-6.04-3.64-2.44-6.04-2.44c-2.36 0-4.36.84-6 2.48s-2.48 3.64-2.48 6 .84 4.36 2.48 6 3.64 2.48 6 2.48zm37.241 7.72c-4.52 0-8.4-1.6-11.64-4.76-3.28-3.16-4.92-7-4.92-11.44s1.64-8.28 4.92-11.44c3.24-3.16 7.12-4.76 11.64-4.76 4.56 0 8.48 1.6 11.72 4.76s4.84 7 4.84 11.44-1.6 8.28-4.84 11.44-7.16 4.76-11.72 4.76zm0-7.72c2.4 0 4.4-.84 6.04-2.48s2.44-3.64 2.44-6-.8-4.4-2.44-6.04-3.64-2.44-6.04-2.44c-2.36 0-4.36.84-6 2.48s-2.48 3.64-2.48 6 .84 4.36 2.48 6 3.64 2.48 6 2.48zm37.241 7.72c-4.52 0-8.4-1.6-11.64-4.76-3.28-3.16-4.92-7-4.92-11.44s1.64-8.28 4.92-11.44c3.24-3.16 7.12-4.76 11.64-4.76 4.56 0 8.48 1.6 11.72 4.76 2.44 2.36 3.96 5.12 4.52 8.2h-8.36c-.4-1.04-1.04-2-1.84-2.8-1.64-1.64-3.64-2.44-6.04-2.44-2.36 0-4.36.84-6 2.48s-2.48 3.64-2.48 6 .84 4.36 2.48 6 3.64 2.48 6 2.48c2.4 0 4.4-.84 6.04-2.48l.48-.52h-7.6l.04-6.04h17.44v2.72c-.44 3.56-1.96 6.64-4.68 9.28-3.24 3.16-7.16 4.76-11.72 4.76zm32.841-.6V28.56L193.045 8.8h9.4l6.88 11.32 6.92-11.32h9.44l-12.36 19.76V40h-7.96z" transform="matrix(.89252 0 0 .89252 -1.428 84.681)" id="SvgjsG1663" fill="#303841"/></g></svg>