<svg xmlns="http://www.w3.org/2000/svg" width="3171.429" height="1860.712"><g transform="matrix(8.57143 0 0 8.57143 85.714 85.714)"><g id="SvgjsG3063" fill="#ffcd38"><path xmlns="http://www.w3.org/2000/svg" d="M21.62 10.06c1.39-3.11 1.45-5.8.15-8.23a.51.51 0 0 0-.68-.21c-.24.13-.34.43-.21.68 1.15 2.16 1.09 4.5-.17 7.32-.19-.07-.37-.14-.59-.19l-.41-.09c-.3-.07-.63 0-.89.16-.26.17-.44.44-.5.75l-.1.51c-1.02.16-1.72 1.07-2.41 2.41-1.06 2.44-2.86 3.99-3.84 4.7-.55.41-1.24.6-1.93.56l-3.86-.21c-.74-.12-1.49.03-2.12.41l-1.3.79c-.87.53-1.43 1.46-1.49 2.49-.01.24.14.45.37.51a.487.487 0 0 0 .57-.25c.16-.3.76-.46 1.24-.59.15-.04.29-.07.42-.11l.77-.24c.41-.12.8-.12 1.18-.01l2.99.89c1.03.3 2.1.34 3.18.12.31-.06.65-.12.99-.18 2.19-.37 5.2-.87 7.43-4.57 1.11-1.85 1.55-3.29 1.33-4.41l.49-.39c.38-.29.54-.79.39-1.25-.18-.57-.53-1.02-1.03-1.36Zm-2.31.39c.01-.06.04-.09.07-.1.02-.01.07-.04.12-.02l.41.09c1.01.22 1.57.63 1.78 1.3 0 .02.03.11-.05.17l-.28.22c-.32-.46-.8-.81-1.44-1.06-.02 0-.05-.02-.07-.02a6.89 6.89 0 0 0-.61-.19l.07-.39Zm.26 6.51c-2 3.31-4.51 3.73-6.74 4.1-.36.06-.7.12-1.03.18-.92.19-1.83.15-2.7-.1l-2.99-.89c-.27-.08-.55-.12-.84-.12s-.6.04-.91.13l-.78.24c-.12.04-.25.07-.38.1-.15.04-.3.08-.46.13.15-.18.33-.34.53-.46l1.3-.79c.43-.26.94-.35 1.49-.27l3.91.22c.94.05 1.85-.21 2.58-.75 1.06-.77 3.01-2.45 4.15-5.08.92-1.77 1.46-1.89 1.9-1.86.25.01.55.09.95.25.02 0 .05.02.07.02.57.23.93.56 1.08 1.01.29.84-.11 2.21-1.15 3.94Z" style="stroke-width:0" transform="translate(98.939 -9.923) scale(6.34972)"/><path xmlns="http://www.w3.org/2000/svg" d="M19.86 13.78c-.25-.11-.55 0-.66.26-.64 1.47-1 2.14-1.93 3.22-.18.21-.16.53.05.71.09.08.21.12.33.12.14 0 .28-.06.38-.17 1-1.17 1.42-1.93 2.09-3.48.11-.25 0-.55-.26-.66ZM2.78 17.57c.11 0 .22-.04.31-.11.22-.17.25-.49.08-.7-.91-1.14-.69-2.44-.27-3.42.19.86.62 1.67 1.23 2.13.77.59 1.71.57 2.58-.06 1.96-1.4.87-3.3-.09-4.97C6 9.36 5.36 8.25 5.33 7.16c-.07-2.3.78-3.42 1.54-3.96-.42.96-.83 2.29-.47 3.25.2.52.6.89 1.22 1.08.84.16 1.37-.13 1.67-.4.25-.23.43-.53.54-.84.12.62.07 1.28-.18 1.89-.35.86-.67 2.09-.25 3.02.21.48.59.82 1.11 1.01.76.28 1.58.14 2.13-.36.53-.48 1.03-1.45.64-3.41.58.04 1.51.28 2.05 1.35.12.25.42.35.67.22.25-.12.35-.42.22-.67-.92-1.85-2.79-2.03-3.66-1.87-.14.03-.26.11-.33.22-.07.12-.1.26-.06.4.38 1.44.31 2.54-.21 3.01-.33.3-.79.29-1.12.17-.27-.1-.44-.25-.54-.48-.21-.48-.12-1.29.27-2.24.56-1.38.38-2.92-.48-4.12l-.13-.19c-.13-.19-.36-.27-.58-.19-.21.08-.35.29-.33.52.03.34.01 1.4-.44 1.82-.07.06-.27.25-.75.17-.27-.08-.44-.23-.52-.46-.33-.86.45-2.67 1.02-3.61.1-.16.1-.37 0-.53s-.29-.25-.48-.22c-.04 0-3.68.5-3.54 5.46.04 1.34.77 2.62 1.43 3.75 1.14 1.98 1.49 2.86.37 3.66-.52.37-.98.4-1.39.08-.75-.57-1.16-2.1-.81-3.02a.51.51 0 0 0-.21-.61.5.5 0 0 0-.63.1c-1.02 1.18-2.48 4-.69 6.23.1.12.24.19.39.19Z" style="stroke-width:0" transform="translate(98.939 -9.923) scale(6.34972)"/></g><path d="M.86 14c0 1.373.827 2.53 2.48 3.47s3.68 1.41 6.08 1.41c2.387 0 4.333-.26 5.84-.78 1.813-.627 2.72-1.547 2.72-2.76 0-1.267-.773-2.18-2.32-2.74-.88-.32-2.593-.653-5.14-1l-1.98-.28c-2.413-.347-4.013-.653-4.8-.92-1.173-.4-1.76-.98-1.76-1.74 0-.72.693-1.307 2.08-1.76s3.173-.68 5.36-.68c2.013 0 3.757.373 5.23 1.12s2.21 1.633 2.21 2.66c0 .373.187.56.56.56s.56-.187.56-.56c0-1.373-.827-2.53-2.48-3.47s-3.68-1.41-6.08-1.41c-2.387 0-4.333.26-5.84.78C1.767 6.527.86 7.447.86 8.66c0 1.267.807 2.187 2.42 2.76.773.267 2.48.6 5.12 1l.94.14 1.02.14c2.44.333 4.06.64 4.86.92 1.093.373 1.64.947 1.64 1.72 0 .72-.693 1.307-2.08 1.76s-3.173.68-5.36.68c-2.013 0-3.757-.373-5.23-1.12S1.98 15.027 1.98 14c0-.373-.187-.56-.56-.56s-.56.187-.56.56zm41.5-8.44c-.253 0-.427.107-.52.32L36.98 16.8 31.02 4.86 25.04 16.8 20.18 5.88a.502.502 0 0 0-.5-.32c-.36 0-.54.18-.54.54 0 .08.013.16.04.24l5.8 13.08 6.04-12.06 6.02 12.06 5.82-13.08a.587.587 0 0 0 .04-.22c0-.373-.18-.56-.54-.56zm10.26-.34c-2.427 0-4.507.66-6.24 1.98-1.773 1.347-2.66 2.987-2.66 4.92s.887 3.573 2.66 4.92c1.72 1.307 3.8 1.96 6.24 1.96s4.513-.653 6.22-1.96c1.773-1.36 2.66-3 2.66-4.92s-.887-3.56-2.66-4.92c-1.733-1.32-3.807-1.98-6.22-1.98zm7.78 6.9c0 1.587-.76 2.943-2.28 4.07s-3.353 1.69-5.5 1.69-3.98-.563-5.5-1.69-2.28-2.483-2.28-4.07c0-1.6.76-2.963 2.28-4.09s3.353-1.69 5.5-1.69 3.98.563 5.5 1.69 2.28 2.49 2.28 4.09zm11-6.9c-2.427 0-4.507.66-6.24 1.98-1.773 1.347-2.66 2.987-2.66 4.92s.887 3.573 2.66 4.92c1.72 1.307 3.8 1.96 6.24 1.96s4.513-.653 6.22-1.96c1.773-1.36 2.66-3 2.66-4.92s-.887-3.56-2.66-4.92c-1.733-1.32-3.807-1.98-6.22-1.98zm7.78 6.9c0 1.587-.76 2.943-2.28 4.07s-3.353 1.69-5.5 1.69-3.98-.563-5.5-1.69-2.28-2.483-2.28-4.07c0-1.6.76-2.963 2.28-4.09s3.353-1.69 5.5-1.69 3.98.563 5.5 1.69 2.28 2.49 2.28 4.09zm11.18 1.44c-.373 0-.56.187-.56.56 0 .36.187.54.56.54h6.44v.68c-.733.8-1.667 1.423-2.8 1.87s-2.347.67-3.64.67c-2.147 0-3.98-.563-5.5-1.69s-2.28-2.483-2.28-4.07c0-1.6.76-2.963 2.28-4.09s3.353-1.69 5.5-1.69c1.32 0 2.557.233 3.71.7s2.09 1.113 2.81 1.94c.107.133.247.2.42.2.373 0 .56-.187.56-.56a.532.532 0 0 0-.14-.36c-.84-.947-1.907-1.69-3.2-2.23s-2.68-.81-4.16-.81c-2.427 0-4.507.66-6.24 1.98-1.773 1.347-2.66 2.987-2.66 4.92s.887 3.573 2.66 4.92c1.72 1.307 3.8 1.96 6.24 1.96 2.547 0 4.693-.713 6.44-2.14v1.26c0 .36.187.54.56.54.36 0 .54-.18.54-.54v-4.56h-7.54zm25.54-8a.52.52 0 0 0-.38.16l-7.62 7.6-7.6-7.6a.543.543 0 0 0-.4-.16c-.36 0-.54.187-.54.56a.52.52 0 0 0 .16.38l7.82 7.84v3.78c0 .36.187.54.56.54s.56-.18.56-.54v-3.78l7.84-7.84a.543.543 0 0 0 .16-.4c0-.36-.187-.54-.56-.54z" transform="translate(-2.604 138.285) scale(3.02768)" id="SvgjsG3064" fill="#00000"/></g></svg>